<?xml version="1.0" encoding="UTF-8"?>
<!DOCTYPE svg PUBLIC "-//W3C//DTD SVG 1.1//EN" "http://www.w3.org/Graphics/SVG/1.1/DTD/svg11.dtd">
<!-- Creator: CorelDRAW -->
<svg xmlns="http://www.w3.org/2000/svg" xml:space="preserve" width="6.82666in" height="6.82666in" style="shape-rendering:geometricPrecision; text-rendering:geometricPrecision; image-rendering:optimizeQuality; fill-rule:evenodd; clip-rule:evenodd"
viewBox="0 0 6.82666 6.82666"
 xmlns:xlink="http://www.w3.org/1999/xlink">
 <defs>
  <style type="text/css">
   <![CDATA[
    .fil3 {fill:none}
    .fil2 {fill:#3F3F3F}
    .fil1 {fill:#595959}
    .fil0 {fill:#A1A1A1}
   ]]>
  </style>
 </defs>
 <g id="Layer_x0020_1">
  <metadata id="CorelCorpID_0Corel-Layer"/>
  <g id="_574498768">
   <path id="_574499200" class="fil0" d="M4.6867 3.59903l0 -1.04788c0,-0.33863 -0.135031,-0.659953 -0.37422,-0.899146 -0.239193,-0.239193 -0.56052,-0.374224 -0.899146,-0.374224 -0.33863,0 -0.659961,0.135028 -0.899154,0.374224 -0.239189,0.239193 -0.37422,0.560516 -0.37422,0.899146l0 1.04788 -0.424453 0 0 -1.04788c0,-0.45139 0.179646,-0.880346 0.498559,-1.19926 0.318917,-0.318913 0.74787,-0.498563 1.19926,-0.498563 0.451394,0 0.880346,0.17965 1.19927,0.498563 0.318913,0.318913 0.498559,0.74787 0.498559,1.19926l0 1.04788 -0.424453 0z"/>
   <path id="_574499008" class="fil1" d="M1.39007 3.34702l4.04651 0c0.0970787,0 0.1765,0.0794173 0.1765,0.176496l0 2.27332c0,0.0970827 -0.0794213,0.1765 -0.1765,0.1765l-4.04651 0c-0.0970787,0 -0.1765,-0.0794173 -0.1765,-0.1765l0 -2.27332c0,-0.0970787 0.0794213,-0.176496 0.1765,-0.176496z"/>
   <path id="_574498792" class="fil2" d="M3.56839 4.68507l0 0.412831 -0.310126 0 0 -0.412831c-0.0638504,-0.0482283 -0.102224,-0.123858 -0.102224,-0.205331 0,-0.142075 0.115213,-0.257283 0.257287,-0.257283 0.142075,0 0.257287,0.115209 0.257287,0.257283 0,0.0814724 -0.038374,0.157102 -0.102224,0.205331z"/>
  </g>
 </g>
 <rect class="fil3" width="6.82666" height="6.82666"/>
</svg>
